<svg id="edui-for-bold" viewBox="0 0 1024 1024" width="100%" height="100%">
  <path d="M876.8 710.4c-6.4-51.2-25.6-102.4-57.6-140.8-32-38.4-83.2-70.4-128-76.8 44.8-12.8 76.8-38.4 102.4-76.8 32-38.4 38.4-83.2 38.4-134.4 0-57.6-25.6-121.6-70.4-166.4C710.4 76.8 640 64 576 64H192v896h384c76.8 6.4 140.8-12.8 211.2-51.2 57.6-44.8 96-121.6 89.6-198.4zM288 153.6h262.4c44.8 0 96 6.4 134.4 38.4 32 25.6 51.2 57.6 44.8 96 0 44.8-12.8 83.2-44.8 115.2-38.4 32-89.6 44.8-134.4 38.4H288V153.6zM768 704c0 51.2-25.6 102.4-70.4 134.4-44.8 25.6-89.6 38.4-140.8 38.4H288V544h275.2c51.2 0 102.4 6.4 147.2 38.4 44.8 25.6 64 76.8 57.6 121.6z" fill="#666666"></path>
</svg>
