<svg id="edui-for-redo" viewBox="0 0 1024 1024" width="100%" height="100%">
  <path d="M900.608 474.112c-51.2-51.2-260.608-261.632-291.84-292.352a68.096 68.096 0 0 0-91.648 3.072 73.216 73.216 0 0 0-14.336 76.288c12.288 18.432 187.904 199.68 187.904 199.68H169.984A61.952 61.952 0 0 0 102.4 525.312a71.168 71.168 0 0 0 68.096 67.584h517.632l-173.056 172.032a68.096 68.096 0 0 0 0 93.184 65.536 65.536 0 0 0 90.624 7.168c25.088-23.04 256-252.928 297.984-296.448s-3.072-94.72-3.072-94.72z" fill="#666666"></path>
</svg>
