<svg id="edui-for-undo" viewBox="0 0 1024 1024" width="100%" height="100%">
  <path d="M128.512 476.16c51.2-51.2 260.608-261.632 291.84-292.352a68.096 68.096 0 0 1 91.648 3.072 73.216 73.216 0 0 1 13.824 76.288C512 281.6 338.432 460.8 338.432 460.8h520.192a61.952 61.952 0 0 1 65.536 66.56 71.168 71.168 0 0 1-68.096 67.584H338.432L512 768a68.096 68.096 0 0 1 0 93.184 65.536 65.536 0 0 1-90.624 7.168c-25.088-23.04-256-252.928-297.984-296.448s5.12-95.744 5.12-95.744z" fill="#666666"></path>
</svg>
